<svg width="212" height="94" viewBox="0 0 212 94" fill="none" xmlns="http://www.w3.org/2000/svg">
<mask id="path-1-inside-1_351_9" fill="white">
<path d="M103.173 0.270935C116.722 0.235335 130.208 1.4085 142.861 3.72345C155.514 6.0384 167.087 9.4498 176.917 13.7629C186.748 18.0759 194.645 23.2062 200.157 28.8608C205.668 34.5154 208.687 40.5835 209.041 46.7187C209.395 52.8539 207.077 58.936 202.219 64.6178C197.36 70.2996 190.058 75.4699 180.727 79.8333C171.397 84.1967 160.222 87.6679 147.839 90.0486C135.457 92.4293 122.111 93.673 108.562 93.7086L105.868 46.9898L103.173 0.270935Z"/>
</mask>
<path d="M103.173 0.270935C116.722 0.235335 130.208 1.4085 142.861 3.72345C155.514 6.0384 167.087 9.4498 176.917 13.7629C186.748 18.0759 194.645 23.2062 200.157 28.8608C205.668 34.5154 208.687 40.5835 209.041 46.7187C209.395 52.8539 207.077 58.936 202.219 64.6178C197.36 70.2996 190.058 75.4699 180.727 79.8333C171.397 84.1967 160.222 87.6679 147.839 90.0486C135.457 92.4293 122.111 93.673 108.562 93.7086L105.868 46.9898L103.173 0.270935Z" fill="#D9D9D9" stroke="black" stroke-width="116" mask="url(#path-1-inside-1_351_9)"/>
<mask id="path-2-inside-2_351_9" fill="white">
<path d="M121.758 16.3823C131.964 16.3555 142.116 17.1229 151.635 18.6409C161.153 20.1588 169.851 22.3975 177.233 25.2291C184.614 28.0607 190.534 31.4298 194.655 35.144C198.775 38.8582 201.016 42.8448 201.248 46.8761C201.481 50.9075 199.701 54.9046 196.01 58.6393C192.319 62.3741 186.789 65.7732 179.736 68.6428C172.684 71.5123 164.246 73.796 154.906 75.3635C145.565 76.931 135.505 77.7516 125.298 77.7784L123.528 47.0804L121.758 16.3823Z"/>
</mask>
<path d="M121.758 16.3823C131.964 16.3555 142.116 17.1229 151.635 18.6409C161.153 20.1588 169.851 22.3975 177.233 25.2291C184.614 28.0607 190.534 31.4298 194.655 35.144C198.775 38.8582 201.016 42.8448 201.248 46.8761C201.481 50.9075 199.701 54.9046 196.01 58.6393C192.319 62.3741 186.789 65.7732 179.736 68.6428C172.684 71.5123 164.246 73.796 154.906 75.3635C145.565 76.931 135.505 77.7516 125.298 77.7784L123.528 47.0804L121.758 16.3823Z" fill="#D9D9D9" stroke="white" stroke-width="116" mask="url(#path-2-inside-2_351_9)"/>
</svg>
