<svg width="358" height="94" viewBox="0 0 358 94" fill="none" xmlns="http://www.w3.org/2000/svg">
<mask id="path-1-inside-1_351_12" fill="white">
<path d="M106.585 0.270936C120.582 0.235335 134.514 1.4085 147.585 3.72345C160.656 6.0384 172.611 9.4498 182.767 13.7629C192.922 18.0759 201.08 23.2062 206.774 28.8608C212.468 34.5154 215.587 40.5835 215.953 46.7187C216.318 52.8539 213.923 58.936 208.904 64.6178C203.886 70.2996 196.342 75.4699 186.703 79.8333C177.064 84.1967 165.519 87.6679 152.728 90.0486C139.936 92.4293 126.148 93.673 112.151 93.7086L109.368 46.9898L106.585 0.270936Z"/>
</mask>
<path d="M106.585 0.270936C120.582 0.235335 134.514 1.4085 147.585 3.72345C160.656 6.0384 172.611 9.4498 182.767 13.7629C192.922 18.0759 201.08 23.2062 206.774 28.8608C212.468 34.5154 215.587 40.5835 215.953 46.7187C216.318 52.8539 213.923 58.936 208.904 64.6178C203.886 70.2996 196.342 75.4699 186.703 79.8333C177.064 84.1967 165.519 87.6679 152.728 90.0486C139.936 92.4293 126.148 93.673 112.151 93.7086L109.368 46.9898L106.585 0.270936Z" fill="#D9D9D9" stroke="black" stroke-width="116" mask="url(#path-1-inside-1_351_12)"/>
<mask id="path-2-inside-2_351_12" fill="white">
<path d="M125.783 16.3823C136.327 16.3555 146.815 17.1229 156.648 18.6409C166.481 20.1588 175.467 22.3975 183.092 25.2291C190.718 28.0607 196.833 31.4298 201.09 35.144C205.347 38.8582 207.662 42.8448 207.902 46.8761C208.142 50.9075 206.303 54.9046 202.49 58.6393C198.677 62.3741 192.964 65.7732 185.678 68.6428C178.393 71.5123 169.676 73.796 160.027 75.3635C150.378 76.931 139.984 77.7516 129.441 77.7784L127.612 47.0804L125.783 16.3823Z"/>
</mask>
<path d="M125.783 16.3823C136.327 16.3555 146.815 17.1229 156.648 18.6409C166.481 20.1588 175.467 22.3975 183.092 25.2291C190.718 28.0607 196.833 31.4298 201.09 35.144C205.347 38.8582 207.662 42.8448 207.902 46.8761C208.142 50.9075 206.303 54.9046 202.49 58.6393C198.677 62.3741 192.964 65.7732 185.678 68.6428C178.393 71.5123 169.676 73.796 160.027 75.3635C150.378 76.931 139.984 77.7516 129.441 77.7784L127.612 47.0804L125.783 16.3823Z" fill="#D9D9D9" stroke="white" stroke-width="116" mask="url(#path-2-inside-2_351_12)"/>
<path d="M251.4 23.824H257.832V68.416H251.4V23.824ZM223.608 52.48H227.448C236.808 52.48 242.088 52.288 248.04 51.184L248.616 56.416C242.616 57.616 237 57.808 227.448 57.808H223.608V52.48ZM223.608 27.76H245.064V32.896H229.944V54.496H223.608V27.76ZM275.28 30.832H280.368V35.824C280.368 46.096 276.192 56.128 267.84 59.92L264.24 54.88C271.68 51.568 275.28 43.36 275.28 35.824V30.832ZM276.72 30.832H281.76V35.824C281.76 43.024 285.312 50.704 292.752 53.776L289.296 58.816C280.848 55.168 276.72 45.712 276.72 35.824V30.832ZM266.016 28.096H290.928V33.328H266.016V28.096ZM295.056 23.824H301.488V68.272H295.056V23.824ZM312.361 27.568H340.537V32.704H312.361V27.568ZM308.281 57.76H348.457V62.944H308.281V57.76ZM322.489 42.496H328.873V60.304H322.489V42.496ZM338.233 27.568H344.617V31.84C344.617 37.408 344.617 43.648 342.841 53.152L336.457 52.432C338.233 43.6 338.233 37.168 338.233 31.84V27.568Z" fill="black"/>
</svg>
